<svg xmlns="http://www.w3.org/2000/svg" width="512" height="512">
  <path fill="#010100" d="m73.0625 85 1.9101562.1875c5.5359856 2.2186609 8.5430728 7.898405 11.3906248 12.84375.395677.672367.791354 1.344734 1.199021 2.037476 1.257277 2.139628 2.504087 4.285127 3.750198 6.431274 1.233206 2.108799 2.468593 4.216305 3.704559 6.323486.811057 1.383237 1.620901 2.767184 2.429505 4.151856 3.250026 5.552574 6.620549 11.022413 10.046356 16.468017 2.768116 4.695888 2.638223 8.869625 2.604736 14.16211-.0014.839205-.0028 1.678409-.0043 2.543045-.0056 2.679698-.01815 5.359313-.03087 8.038986-.005 1.817056-.0096 3.634113-.01367 5.451172C110.037804 168.09248 110.020542 172.546226 110 177h15c-.0707-1.646455-.0707-1.646455-.142822-3.326172-.165404-4.151809-.267098-8.303342-.351563-12.457519-.0447-1.782728-.105695-3.565137-.18457-5.34668-.554387-12.863219 1.171793-21.315922 8.426544-31.998963 1.631568-2.436995 3.11103-4.950296 4.595535-7.478607 1.416654-2.407772 2.870308-4.792148 4.324356-7.177459 1.100572-1.806735 2.19524-3.616959 3.289551-5.427491 9.62101-15.8647575 9.62101-15.8647575 13.355469-18.287109 3.786544-.70447329 7.068013-.82329217 10.6875.5 5.32941 4.5551279 8.69094 11.193657 12.125 17.1875 1.13329 1.951 2.26743 3.901509 3.40234 5.851562.57219.986456 1.14437 1.972911 1.73389 2.989258 3.24946 5.553553 6.60033 11.046998 9.95606 16.536866.46841.77384.93682 1.54768 1.41943 2.34497.40952.671682.81904 1.343365 1.24097 2.035401 2.88585 5.282677 3.39638 9.658201 3.31762 15.636474-.003.814179-.006 1.628358-.009 2.467209-.0111 2.587906-.0362 5.17546-.0617 7.76326-.01 1.759761-.0192 3.519527-.0273 5.279297-.022 4.302869-.0565 8.605476-.0977 12.908203h14c-.0236-1.519684-.0236-1.519684-.0476-3.070068-.0547-3.796305-.0889-7.592575-.11718-11.389161-.015-1.636127-.0354-3.272215-.0615-4.908203-.21451-13.783117 1.51187-22.610719 9.03882-34.257568 1.16558-1.83367 2.32959-3.668345 3.49219-5.503906.60425-.95149 1.20849-1.902979 1.83105-2.883301 1.92314-3.082154 3.77989-6.196494 5.62207-9.327637.61513-1.038823 1.23025-2.077646 1.86402-3.147949 1.18705-2.01019 2.36472-4.02596 3.53173-6.047852C244.21579 91.3192401 246.57413 87.6938554 252 85c3.87929-.6465486 5.50907-.27753953 8.94263 1.6635742 3.29202 2.5157442 4.88352 4.6658249 6.97534 8.2192383.33945.5675195.67889 1.1350395 1.02862 1.7197575 1.09303 1.833603 2.16718 3.677474 3.24091 5.52243.7508 1.269938 1.50284 2.53914 2.2561 3.807617 1.12828 1.900903 2.25532 3.802436 3.37694 5.707276 2.16776 3.678901 4.38247 7.320267 6.66383 10.930419.50636.804214 1.01272 1.608428 1.53443 2.437012.91171 1.441229 1.83027 2.878161 2.75732 4.309571.40259.643081.80518 1.286162 1.21997 1.94873.34217.533994.68433 1.067988 1.03687 1.618164 2.73494 5.984975 3.25738 11.868695 3.16235 18.334961-.004 1.115019-.004 1.115019-.009 2.252563-.0111 2.343069-.0362 4.685736-.0617 7.028687-.0101 1.601557-.0192 3.20312-.0273 4.804687-.0219 3.898589-.0563 7.796884-.0977 11.695313h14c-.0367-1.047524-.0733-2.095049-.11108-3.174316-.12845-3.954475-.20768-7.908774-.27344-11.864747-.0348-1.69921-.0823-3.398217-.14356-5.096679C307.03902 144.539362 308.36157 136.651795 315 126c.68974-1.178758 1.37531-2.35996 2.05688-3.543457 1.74178-3.001745 3.53298-5.969474 5.34986-8.92627 1.09914-1.789855 2.18855-3.585373 3.27685-5.381836 3.24622-5.336413 6.5579-10.630771 10.03516-15.820312.51498-.7692481 1.02996-1.5384961 1.56055-2.3310547C339.31523 87.6341384 341.19542 86.3549385 344 85c6.9032 0 6.9032 0 10.39014 3.1791992 2.58721 2.7963204 4.47227 5.50533 6.43017 8.7661138.34095.561965.68191 1.123931 1.03319 1.702926 1.87164 3.095041 3.70541 6.21208 5.53688 9.331009.75616 1.284516 1.51275 2.568779 2.26978 3.852783.55714.947695.55714.947695 1.12553 1.914536 2.07582 3.487995 4.26648 6.762062 6.7729 9.952652C389.05906 138.994251 385.96766 158.82557 385 177h15c-.0262-1.098765-.0524-2.197529-.0793-3.32959-.0912-4.118604-.14816-8.23712-.19531-12.356445-.025-1.774893-.059-3.549685-.10254-5.324219C399.18339 137.61726 399.18339 137.61726 405 129c.95541-1.616893 1.91042-3.234043 2.85802-4.85553 1.75926-2.988032 3.57806-5.939417 5.39198-8.89447.56576-.924107.56576-.924107 1.14294-1.866882 1.86733-3.04996 3.73869-6.097387 5.61487-9.141907 1.65654-2.695128 3.29707-5.398767 4.92969-8.108398.7697-1.2533013 1.54039-2.5059927 2.3125-3.757813.93586-1.5352734.93586-1.5352734 1.89062-3.1015625C431.29102 86.6441758 432.7422 85.86638306 436 85c3.20663-.05089888 5.07999-.04213182 8 1 6.62843 6.4243285 10.83726 14.832595 15.4375 22.75 1.64151 2.809065 3.28724 5.615646 4.93359 8.421875.39505.676154.7901 1.352307 1.19712 2.04895 2.90329 4.947816 5.9569 9.779182 9.13907 14.553589 2.71453 4.6734 2.42491 9.432898 2.39038 14.709961-.002 1.223391-.002 1.223391-.004 2.471497-.006 2.59808-.0181 5.196074-.0309 7.794128-.005 1.764322-.01 3.528645-.0137 5.292969-.011 4.319044-.0283 8.638023-.0488 12.957031 1.17973-.03142 1.17973-.03142 2.3833-.06348 3.58044-.0834 7.16067-.135261 10.7417-.186523 1.2375-.03352 2.475-.06703 3.75-.101563 11.47301-.123365 11.47301-.123365 16.125 4.351563 2.10104 3.151564 2.25904 3.95348 2.3064 7.559813.016.92139.032 1.84277.0484 2.79207.005.99376.0107 1.98753.0162 3.0114.009 1.02474.0181 2.04948.0274 3.10527.0145 2.16955.0234 4.33915.0271 6.50874.0119 3.31237.061 6.62285.11157 9.93482.009 2.10871.0167 4.21744.0215 6.32617.0195.98769.0391 1.97538.0592 2.993-.0297 4.54185-.1024 7.75863-3.02769 11.37883-3.86204 3.56352-5.73338 3.51087-10.9104 3.48755-1.25684-.003-2.51367-.006-3.8086-.01-1.31871-.008-2.63742-.0168-3.99609-.0254-1.33984-.005-2.67969-.01-4.01953-.0137-3.2852-.0118-6.57031-.0283-9.85547-.0488.021.67055.0419 1.34111.0635 2.03198.0834 3.05169.13525 6.10313.18652 9.15552.0503 1.58265.0503 1.58265.10156 3.19727.0983 7.79015.0983 7.79015-2.11719 11.85351C473 266 473 266 469 266v20l5 1c2.34777 2.21966 2.9424 3.53507 3.34058 6.74902-.0157 1.02642-.0314 2.05284-.0476 3.11035-.01 1.11504-.0193 2.23008-.0293 3.37891-.0251 1.15887-.0503 2.31774-.0762 3.51172-.0135 1.17434-.0271 2.34867-.041 3.55859-.0353 2.8976-.0847 5.79427-.14648 8.69141 1.03556-.0236 1.03556-.0236 2.09204-.0476 3.15674-.0627 6.31334-.1015 9.47046-.13989 1.08604-.0251 2.17207-.0503 3.29102-.0762 7.33274-.0669 12.67207.0899 18.29907 5.22998 2.68709 4.41255 2.42139 8.29906 2.37866 13.37353.004.99972.008 1.99943.0116 3.02944.003 2.11056-.005 4.22115-.0214 6.33165-.0214 3.2222-.0002 6.44217.0254 9.6643-.003 2.05405-.008 4.10809-.0156 6.16211.008.95954.0162 1.91909.0245 2.9077-.0788 5.65172-.62094 9.17986-4.55579 13.56496-3.27103 2.40122-6.31987 2.23283-10.29688 2.19531-1.08635-.005-2.17271-.01-3.29199-.0151-1.37317-.0182-2.74634-.0364-4.16113-.0552-6.55875-.0619-6.55875-.0619-13.25-.125v33c10.02241-.15805 10.02241-.15805 20.04395-.36035 1.24877-.01 2.49755-.02 3.78417-.0303 1.27779-.0209 2.55557-.0419 3.87208-.0635 3.2998.4541 3.2998.4541 5.71264 2.35351 1.71019 2.26342 2.15513 3.29937 2.14966 6.10059.0219.66.0438 1.32.0664 2-1.01093 3.21486-2.8211 4.20867-5.62891 6-2.94142.38466-5.50382.53815-8.44119.50336-.85184.006-1.70367.0116-2.58132.0176-2.86794.0147-5.73504.00069-8.60298-.0131-2.0714.005-4.14281.011-6.2142.0189-5.70273.0168-11.40519.008-17.10792-.004-6.14596-.009-12.29188.005-18.43783.0159-11.34754.0168-22.69498.0153-34.04252.004-10.48238-.01-20.96472-.0127-31.4471-.008-.69488.00031-1.38975.00061-2.10569.00093-2.82061.001-5.64123.003-8.46184.004-26.46842.0122-52.93678.001-79.40519-.0204-23.52408-.019-47.04807-.0173-70.57214.002-26.4195.0214-52.838943.0299-79.258446.0176-2.815524-.001-5.631049-.003-8.446573-.004-.693272-.00031-1.386544-.00063-2.100824-.00096-10.4767-.005-20.953365.00078-31.43006.0109-11.910526.0114-23.8209493.008-35.731471-.0131-6.080564-.0105-12.160951-.0146-18.241513-.001-5.561324.0119-11.122307.005-16.683599-.0159-2.016747-.004-4.033522-.002-6.05025.008-2.732464.0121-5.46375-.00024-8.196151-.0189-.790817.009-1.581635.0187-2.396416.0284-3.733344-.0512-5.854194-.41015-9.033045-2.4382C0 423 0 423-.628906 421c.02191-.66.04383-1.32.06641-2-.0013-.66-.0026-1.32-.0039-2 .833851-2.94436 2.181588-4.10113 4.566406-6 3.116211-.4541 3.116211-.4541 6.734375-.39063 1.167568.01 2.335137.02 3.538086.0303 1.477588.0364 2.955176.0728 4.477539.11035l14.25.25v-33c-7.957836.15764-7.957836.15764-15.914551.36035-10.449005.10437-10.449005.10437-15.085449-4.36035-1.786473-2.94073-2.260338-5.16085-2.306396-8.58154-.01599-.90129-.03197-1.80258-.04845-2.73117-.0054-.96673-.01073-1.93346-.01625-2.92948-.009-1.00113-.01806-2.00225-.02736-3.03372-.0145-2.1165-.02339-4.23304-.02708-6.34958-.01189-3.23108-.06108-6.46024-.111572-9.69092-.0095-2.05858-.0167-4.11718-.02148-6.17578-.0293-1.44401-.0293-1.44401-.05919-2.9172.02888-4.31271.120267-7.59883 2.777695-11.12235C10.945919 312.83252 21.487895 316 33 316v-78H7c-6-5-6-5-7-7-.109723-1.48451-.159033-2.97371-.177002-4.46216-.01283-.92468-.02567-1.84937-.03889-2.80208-.0074-1.00206-.01477-2.00412-.02238-3.03654-.0081-1.02853-.01614-2.05705-.02446-3.11675-.01385-2.17973-.02457-4.35949-.03242-6.53926-.01721-3.33188-.06109-6.66276-.105225-9.99438-.01013-2.11653-.01864-4.23307-.02539-6.34961-.01751-.99599-.03502-1.99198-.05306-3.01814.01351-4.3124.04954-6.945601 2.255447-10.724781 4.057674-3.570237 6.680528-4.206736 12.082764-4.151612 1.115039.0064 2.230078.01289 3.378906.01953 1.158867.01676 2.317735.03351 3.511719.05078 1.761504.01354 1.761504.01354 3.558594.02734 2.897341.02356 5.79427.05645 8.691406.09766-.02618-1.098765-.05237-2.197529-.07935-3.32959-.09124-4.118604-.148167-8.23712-.195312-12.356445-.02498-1.774893-.05897-3.549685-.102539-5.324219C32.181646 137.544222 32.181646 137.544222 38 129c1.226324-2.044156 2.450103-4.089839 3.671875-6.136719 1.354862-2.186397 2.714381-4.369913 4.078125-6.550781 5.666853-9.042626 5.666853-9.042626 11.085938-18.234375.397353-.693918.794707-1.387837 1.204101-2.102783 1.001132-1.7650465 1.98525-3.5397136 2.967773-5.3151858C64.0384884 86.6133125 67.9201678 84.32421097 73.0625 85ZM110 238c-.03738 1.6977-.07477 3.39539-.113281 5.14453-.06565 2.22268-.132097 4.44534-.199219 6.66797-.02256 1.11955-.04512 2.2391-.06836 3.39258-.03545 1.07314-.0709 2.14629-.107422 3.25195-.02618.98976-.05237 1.97952-.07935 2.99927-.496611 2.92162-1.071758 3.8097-3.432373 5.5437l-3 1c-.145102 3.27037-.233994 6.53991-.3125 9.8125-.0419.92877-.08379 1.85754-.126953 2.81445-.04603 2.55025-.04388 4.86748.439453 7.37305 2.2981 2.18184 2.2981 2.18184 5 3 1.774905 1.77491 1.235 4.37785 1.316406 6.78516.04189 1.16982.08379 2.33964.126953 3.54492.03932 1.2317.07863 2.4634.119141 3.73242.04318 1.23557.08637 2.47113.130859 3.74414.106482 3.06431.207102 6.12882.306641 9.19336h15v-78h-15zm92 0v78h14v-78h-14zm92 0c-.049 1.45793-.098 2.91586-.14844 4.41797-.0751 1.92319-.1506 3.84637-.22656 5.76953-.0309.95971-.0619 1.91941-.0937 2.9082-.0387.93135-.0773 1.8627-.11719 2.82227-.0314.8536-.0628 1.7072-.0952 2.58667-.3682 2.88156-.89939 4.94975-2.31885 7.49536l-5 2v20l5 2c1.94911 3.45403 2.28267 6.59972 2.41406 10.51953.0387 1.02158.0773 2.04317.11719 3.0957.0309 1.0551.0619 2.1102.0937 3.19727.0387 1.07443.0773 2.14887.11719 3.25586.094 2.64361.17698 5.2876.25781 7.93164h14v-78h-14zm91 0v78h15v-78h-15zM110 378v33h15v-33h-15zm92 0v33h14v-33h-14zm92 0v33h14v-33h-14zm91 0v33h15v-33h-15z"/>
  <path fill="#f4a76b" d="M71 105c3.2864242 2.8160004 5.2268455 6.4987718 7.3789062 10.1875.4127367.698914.8254734 1.397827 1.2507172 2.11792C80.9448629 119.534457 82.253869 121.767078 83.5625 124c1.31347 2.232153 2.628203 4.463555 3.943588 6.69458.817203 1.387036 1.633061 2.774866 2.447418 4.163574C91.576308 137.620429 93.22232 140.33348 95 143c.247746 2.219231.247746 2.219231.244827 4.858276.0039 1.001073.0079 2.002146.01193 3.033554-.0057 1.097239-.01139 2.194478-.01726 3.324967.002 1.156294.004 2.312588.0061 3.503921.0035 2.514362.0028 5.028732-.0018 7.543091-.0056 3.974922.003 7.949659.0172 11.924545.03776 11.30262.05592 22.605158.04439 33.907836-.0062 6.243.0053 12.48571.03644 18.72863.01562 3.30402.01878 6.60733.0054 9.91137-.01426 3.6828.0019 7.36429.02503 11.04701-.01177 1.09724-.02353 2.19448-.03566 3.32497.03375 2.72502.0928 5.22725.663345 7.89183 2.244283 2.26985 2.244283 2.26985 5 3l2 1v20l-6 3c-1.635895 1.63589-1.142009 3.49406-1.158218 5.75185-.0098 1.0279-.01958 2.0558-.02966 3.11485-.0058 1.13719-.01151 2.27439-.01744 3.44604-.0099 1.19009-.0198 2.38017-.03 3.60631-.02625 3.27255-.04809 6.5451-.068 9.81769-.02182 3.41668-.04923 6.8333-.07606 10.24994-.04998 6.47398-.0949 12.94799-.138023 19.42202-.04933 7.36871-.104263 14.73738-.159679 22.10605C95.209021 381.67646 95.102939 396.83821 95 412H48c-.271858-33.92843-.486426-67.85645-.612784-101.78572-.01501-4.01495-.03054-8.0299-.0464-12.04485-.0031-.79923-.0063-1.59845-.0095-2.4219-.05207-12.90372-.146603-25.80679-.257116-38.71013-.112627-13.26188-.178957-26.52342-.203228-39.78577-.01638-8.16945-.06792-16.33708-.165936-24.505974-.06394-5.618633-.08249-11.236333-.06702-16.855302.0076-3.232165-.01-6.460527-.06845-9.692259-.285668-16.60878 2.018234-27.554303 11.912804-41.064929 2.440485-3.430322 4.5288388-7.058603 6.64263-10.695666 1.8985968-3.1895144 3.8152961-6.3479442 5.875-9.4375Z"/>
  <path fill="#f5a86b" d="M438 105c3.1782674 3.7836303 5.7888508 7.769712 8.2929688 12.015625.587246.984652.587246.984652 1.1863555 1.989197 1.2395977 2.079644 2.4741597 4.162218 3.7081757 6.245178 1.24552 2.096757 2.492102 4.192868 3.740311 6.288025.774116 1.299946 1.546537 2.600903 2.317108 3.902954C458.895642 138.38804 458.895642 138.38804 461 141c.09928 1.53218.129083 3.068917.131302 4.604309.004.995433.008 1.990866.01215 3.016464-.000529 1.101288-.0011 2.202575-.0016 3.337235.0035 1.152789.0069 2.305579.01053 3.493301.0074 2.513298.01271 5.026603.01629 7.53991.0071 3.97528.02243 7.950475.04134 11.925712.0063 1.360127.01266 2.720253.01898 4.08038.0032.681297.0063 1.362594.0096 2.064536.04209 9.257851.07504 18.515662.08735 27.773603.0084 6.24006.03088 12.4799.06935 18.71986.01976 3.30287.02995 6.60534.02717 9.90829-.0023 3.68728.01976 7.37366.04752 11.06081-.0066 1.09319-.0132 2.18638-.02001 3.3127.06721 5.94154.06721 5.94154 2.395661 11.31761 2.106151 2.03863 2.106151 2.03863 5.154373 2.84528.145102 3.27037.233994 6.53991.3125 9.8125.0419.92877.08379 1.85754.126953 2.81445.046 2.54846.04079 4.86871-.439453 7.37305-2.394531 1.94922-2.394531 1.94922-5 3-2.159572 3.23936-2.254823 4.13781-2.278473 7.87846-.01116 1.00541-.02233 2.01082-.03383 3.0467-.0022 1.10195-.0043 2.2039-.0065 3.33924-.01507 1.74167-.01507 1.74167-.03044 3.51853-.03095 3.84709-.0479 7.69411-.06477 11.54129-.0187 2.66373-.03818 5.32745-.05869 7.99116-.0468 6.30037-.08354 12.60075-.116673 18.90121-.03821 7.1729-.08762 14.34571-.137984 21.51854C461.169251 381.49002 461.081477 396.24497 461 411h-46c-.431312-33.59655-.770634-67.19205-.970241-100.79076-.02376-3.98446-.04835-7.96892-.07346-11.95338-.005-.79309-.01-1.58618-.0151-2.40331-.08223-12.77005-.23178-25.53844-.407099-38.30751-.17894-13.14435-.283475-26.28785-.321778-39.43338-.02353-7.36683-.07962-14.730201-.22119-22.095791-1.091473-58.451607-1.091473-58.451607 18.8400705-82.3771361C434.1157863 110.859125 436.0489768 108.01923 438 105Zm-184 1c3.9846075 1.3282025 4.91311 3.7546398 6.8710937 7.2304687.5454019.9420605.5454019.9420605 1.1018219 1.9031525 1.1634214 2.0131698 2.3143754 4.0331368 3.4645844 6.0538788 1.149017 2.001427 2.300584 4.001352 3.453873 6.00032.716516 1.243777 1.430184 2.489199 2.140472 3.736542 1.549776 2.706375 3.04991 5.173095 5.05896 7.567993 2.721479 5.000004 2.465963 9.349957 2.423355 14.957352.0071 1.145372.01425 2.290745.02159 3.470825.01927 3.779269.011 7.557979.0033 11.33728.0099 2.62744.02184 5.254873.03574 7.882294.03021 6.207016.04195 12.413904.04558 18.620987.0071 11.778607.04237 23.557057.09344 35.335557.01261 3.87108.01182 7.742.0097 11.6131.0066 2.36644.01358 4.73289.02109 7.09933-.0041 1.07958-.0082 2.15916-.0125 3.27146.0054.98969.01077 1.97939.01631 2.99908.000335.85869.000671 1.71739.001 2.6021.28569 2.64353.702425 4.14855 2.25054 6.31828l5 2v20l-6 3c-1.224457 2.44891-1.138206 4.05733-1.158218 6.79617-.0098 1.01245-.01958 2.0249-.02966 3.06803-.0058 1.11489-.01151 2.22979-.01744 3.37848-.0099 1.17072-.0198 2.34144-.03 3.54763-.02622 3.21465-.04807 6.42928-.068 9.64397-.02185 3.35794-.04924 6.71584-.07606 10.07375-.04995 6.36061-.09488 12.72125-.138023 19.08192-.04936 7.24057-.10428 14.48109-.159679 21.72161-.1138 14.89611-.219898 29.79226-.32287 44.68844h-46c-.385645-33.79211-.689375-67.58338-.868111-101.3772-.02126-4.00464-.04326-8.00928-.06573-12.01391-.0045-.79713-.0089-1.59426-.01351-2.41555-.07364-12.84694-.207486-25.69256-.364247-38.53872-.159916-13.21667-.253596-26.43267-.287906-39.65028-.02108-7.40997-.0715-14.817203-.197907-22.226195-.967985-58.408457-.967985-58.408457 16.8178139-78.485214C249.7895511 113.0854776 251.8596676 109.6490639 254 106Z"/>
  <path fill="#f3a76a" d="M346 105c2.9012551 2.7752997 4.7920829 5.7242465 6.8710937 9.171875.5454019.900964.5454019.900964 1.1018219 1.820129 1.1589197 1.916916 2.3117174 3.837435 3.4645844 5.757996.771107 1.27627 1.542587 2.552314 2.314453 3.828125C361.845684 129.045611 363.934068 132.515839 366 136c.690649.996214 1.381298 1.992428 2.092876 3.01883 2.72235 4.815865 2.449794 9.587457 2.388142 14.997268.0034 1.100373.0068 2.200746.01036 3.334464.0066 3.682159-.0154 7.363587-.03727 11.045678-.0011 2.64141-.000671 5.282775.0018 7.924179.0021 5.684143-.01042 11.368102-.03295 17.052199-.03255 8.218154-.04293 16.436222-.04795 24.654432-.0087 13.33438-.03535 26.66866-.07321 40.00298-.03673 12.95084-.06504 25.90166-.08203 38.85254-.0011.79867-.0021 1.59735-.0032 2.42023-.0052 4.00683-.01028 8.01367-.01525 12.02051-.041471 33.22564-.11301 66.45114-.201318 99.67669h-46c-.38571-33.77508-.68941-67.54934-.868111-101.32614-.02126-4.00335-.04326-8.0067-.06573-12.01004-.0045-.79687-.0089-1.59374-.01351-2.41475-.07362-12.8398-.207461-25.67828-.364247-38.51729-.159961-13.21104-.253606-26.42139-.287906-39.63335-.02107-7.4061-.07144-14.809444-.197907-22.214555-.968975-58.411118-.968975-58.411118 16.8178139-79.498768C341.7308407 112.1194505 343.8408246 108.6471093 346 105Z"/>
  <path fill="#f5a86b" d="M163 105c4.1835169 4.7855352 7.1941149 10.216231 10.375 15.6875 1.111649 1.899933 2.223626 3.799673 3.335938 5.699219.731623 1.256231.731623 1.256231 1.478027 2.537842 1.684943 2.954562 1.684943 2.954562 3.275028 5.161972 4.4074 6.572917 5.39187 11.50706 5.257534 19.328292.0051 1.10702.01025 2.21404.01554 3.354606.0098 3.686998-.02304 7.372336-.05591 11.059182-.0017 2.651725-.001 5.30335.0027 7.955063.0031 5.697282-.01559 11.39415-.04943 17.091328-.0489 8.236948-.0644 16.473696-.07193 24.710776-.01311 13.36605-.05298 26.73188-.109815 40.09781-.05513 12.97883-.09757 25.9576-.123047 38.93653-.0016.80087-.0032 1.60175-.0048 2.42689-.0078 4.01801-.01541 8.03602-.02287 12.05403-.062159 33.29982-.16944 66.59934-.301965 99.89896h-46c-.226399-33.99656-.405276-67.99284-.510653-101.98999-.01251-4.0201-.02545-8.0402-.03866-12.0603-.0026-.80028-.0052-1.60056-.0079-2.42509-.04343-12.93218-.122228-25.86391-.214263-38.79583-.09375-13.28448-.149109-26.56872-.169357-39.85351-.01367-8.18765-.05674-16.374031-.13828-24.56129-.05315-5.626019-.06877-11.25139-.05585-16.877642.0064-3.239337-.0085-6.476033-.05704-9.715075-.210561-14.776348.492567-25.423507 9.984523-37.171391 1.826997-2.344973 3.287905-4.882624 4.7739382-7.452226.504668-.846269 1.009336-1.692539 1.5292969-2.564453.483991-.815332.968034-1.630664 1.4667449-2.470703 1.0208004-1.7182417 2.0428629-3.4357345 3.0664062-5.1523438.6507752-1.0962268.6507752-1.0962268 1.3146973-2.2145996C162 106 162 106 163 105Z"/>
  <path fill="#DF9454" d="M71 105c2.85984547 2.51632049 4.41468822 5.33885553 6.1875 8.6875l1.60546875 3.01171875L80 119l-2.375.6875C74.24543284 121.37728358 74.3393397 122.53955157 73 126c-1.34613378 2.12701266-2.70114018 4.24842285-4.0625 6.36572266-4.47902498 7.48382552-5.06697229 14.07550161-4.9375 22.78271484-.00754401 1.39248913-.01860032 2.78496315-.03295898 4.17739868-.02807549 3.61391655-.0093886 7.22603028.02008056 10.83987427.02161411 3.70789491-.00242906 7.41548834-.02227783 11.12335205C63.93265257 188.52648821 63.95001082 195.76262473 64 203l1.81640625-1.47265625C68.77734578 199.45627514 70.45078455 199.49296922 74 200c2.875 1.5625 2.875 1.5625 5 4 .63734462 3.96569988.61999672 6.03280512-1.5625 9.4375C74.08147594 215.58879747 71.91578329 215.48947291 68 215l-4-3 1 130 3-2c3.91054241-.42660463 6.12030578-.58646281 9.4375 1.625 2.06041771 3.13183492 2.2392545 4.69044773 1.5625 8.375-2.49084248 3.36996335-3.88588865 4.81810427-8.0625 5.5C68 355 68 355 64 352v59h30V292h1v120H48c-.27185813-33.92842895-.4864265-67.85644796-.61278395-101.78572412-.01500664-4.01494925-.03053869-8.02989631-.04639574-12.04484229l-.00953856-2.42190656c-.05207066-12.90371912-.14660314-25.80678999-.2571153-38.71012586-.11262697-13.26188162-.17895719-26.52342616-.20322839-39.78576633-.01638249-8.16945894-.06791963-16.33708509-.16593566-24.50597909-.06393979-5.61863284-.08249172-11.2363327-.06701893-16.85530204.0076113-3.23216437-.00995437-6.46052705-.06844917-9.69225839-.28563611-16.6087807 2.01826601-27.55430313 11.9128356-41.06492948C60.92285497 121.7028442 63.01120878 118.0745626 65.125 114.4375c1.89859681-3.1895144 3.81529615-6.34794422 5.875-9.4375Z"/>
  <path fill="#E59756" d="M438 105c3.51098025 4.01254885 5.76537994 8.20983041 8 13l-1.33390808 1.30838013c-12.68671426 12.8811008-14.09229031 26.78616902-13.98835754 44.02365112.02920551 2.1907495.06538779 4.38128614.10339355 6.57189941.05284949 3.74162044.04202745 7.48306372.03723145 11.22497559C430.81806321 188.42049818 430.88612793 195.70919956 431 203l1.81640625-1.47265625C435.77734578 199.45627514 437.45078455 199.49296922 441 200c2.875 1.625 2.875 1.625 5 4 .72567326 3.78962702.27777899 5.48888666-1.5625 8.875C442 215 442 215 438.5 215.5c-3.5-.5-3.5-.5-7.5-3.5l1 130 3-2c3.91054241-.42660463 6.12030578-.58646281 9.4375 1.625 2.06041771 3.13183492 2.2392545 4.69044773 1.5625 8.375-2.49084248 3.36996335-3.88588865 4.81810427-8.0625 5.5C435 355 435 355 431 352v59h-16c-.43531051-33.59645022-.77063483-67.19210465-.97024126-100.79075789-.02375778-3.98446554-.04835045-7.9689255-.07345991-11.95338273l-.01510272-2.40330554c-.08223074-12.77004975-.23177975-25.53844124-.40709924-38.30751371-.17893997-13.14435495-.28347444-26.28785376-.32177827-39.43337631-.02352544-7.36683201-.07962102-14.73020492-.22118968-22.09579468-1.09147017-58.45160762-1.09147017-58.45160762 18.84007359-82.37713623C434.11578634 110.85912505 436.04897682 108.01922997 438 105Z"/>
  <path fill="#E99A57" d="M254 106c3.61045212 1.20348404 4.15725827 2.1347558 6.0703125 5.34375 1.59414343 3.35810559 2.14418218 4.89337003 1.12792969 8.5078125-1.60570871 3.03174326-3.38011356 5.82137585-5.32324219 8.6484375l-1.921875 2.9921875c-1.17079474 1.81846843-2.35817029 3.62644105-3.56689453 5.41992188-2.38683007 3.59495786-2.50849913 5.68717419-2.49975586 10.00634765l.00022888 3.76101685c.00510701 1.35944661.01032301 2.71889281.01564026 4.07833862.00186483 1.38719634.00328843 2.77439334.00428772 4.16159058.00382005 3.65294204.01364598 7.3058444.02470398 10.95877075.01022511 3.72680118.014796 7.45360876.01983643 11.18041992C247.96190017 188.37241394 247.97897046 195.68620141 248 203l1.81640625-1.46875C252.79820298 199.44025838 254.42645212 199.41656361 258 200c2.9375 2.0625 2.9375 2.0625 5 5 .06584389 3.81894541-.14427971 5.97971812-2.625 8.9375-3.30737046 1.4796131-5.79506868 1.45303796-9.375 1.0625l-3-3-1 130 4-2c2.7514569-.51052423 5.25105885-.54529099 8 0 2.5625 2.125 2.5625 2.125 4 5 0 3.63075827-.58823873 5.42048414-2.6875 8.375-2.99607309 2.10534866-4.72002743 2.08361352-8.3125 1.625l-3-2v-2h-2v60h-15c-.38921005-33.79202752-.68937533-67.58342421-.8681106-101.37720148-.02125779-4.00464094-.04326168-8.00927746-.06572729-12.0139118l-.01351296-2.41554752c-.07364026-12.8469356-.20748645-25.692556-.36424668-38.53871566-.15991642-13.21667798-.2535968-26.43267527-.28790688-39.65028075-.02107911-7.40997685-.07149671-14.81720578-.19790655-22.22619795-.96798511-58.40845655-.96798511-58.40845655 16.81781387-78.48521424C249.7895511 113.08547761 251.8596676 109.64906392 254 106Z"/>
  <path fill="#E69856" d="M163 105c3.51098025 4.01254885 5.76537994 8.20983041 8 13l-1.3192749 1.2802124c-11.87033975 12.14622374-14.99072951 25.18192274-14.82513428 41.63763428.06269622 3.55521349.18622875 7.10672167.32043457 10.65985107.12488277 3.66724653.17800327 7.33555407.23803711 11.0043335C155.54107347 189.72385791 155.7446196 196.86150987 156 204l1.81640625-1.96484375C160 200 160 200 162.9375 199.4375c4.18428713.76854253 5.63177503 2.10055838 8.0625 5.5625 0 3.54361243-.34149956 5.86591591-2.125 8.9375-3.03152284 1.71786295-5.46496195 1.41526256-8.875 1.0625l-5-3 1 132 4-4c3.97487617-.56783945 6.06489221-.62340519 9.4375 1.625 2.06041771 3.13183492 2.2392545 4.69044773 1.5625 8.375-2.46488505 3.33484448-3.86760291 4.81126715-8 5.5-3-.5-3-.5-8-3.5v59h-15c-.2284751-33.9965339-.40527564-67.99285339-.51065329-101.98998544-.01250601-4.02010377-.02544934-8.04020602-.03866312-12.06030753l-.0079488-2.42508608c-.04342951-12.93218123-.12222804-25.86391472-.21426275-38.79583096-.09375031-13.2844751-.1491091-26.56871684-.16935699-39.85350913-.01367333-8.18764893-.05674217-16.37403204-.13827972-24.56129098-.05315158-5.62601892-.06877167-11.25139034-.0558491-16.87764168.00636182-3.23933769-.00847805-6.47603352-.05704098-9.71507478-.21056137-14.77634823.49256645-25.42350757 9.98452306-37.17139148 1.82699646-2.34497267 3.28790496-4.88262422 4.77393794-7.45222569l1.52929687-2.56445313L156.5625 115.0625c1.02080043-1.71824173 2.04286294-3.43573452 3.06640625-5.15234375l1.31469727-2.21459961C162 106 162 106 163 105Z"/>
  <path fill="#E99A58" d="M346 105c2.4789559 2.38303499 4.05722452 4.64725654 5.6875 7.6875l1.32421875 2.44921875L354 117l-1.27127075 1.58863831c-13.07066416 16.96249876-14.60164968 31.70303554-13.69003296 52.1950531.14613933 3.64707535.20775828 7.29563371.27770996 10.94482421C339.4642497 188.82246686 339.70143694 195.91065051 340 203l1.28515625-1.47265625C343 200 343 200 346.4375 199.5625c3.5625.4375 3.5625.4375 6 2 2.16646028 3.37967804 2.12538002 5.49733987 1.5625 9.4375-1.5625 2.4375-1.5625 2.4375-4 4-4.6947143.5030051-6.71668658.14165671-11-2v130l4-3c3.91578329-.48947291 6.08147594-.58879747 9.4375 1.5625 2.18249672 3.40469488 2.19984462 5.47180012 1.5625 9.4375-2.0625 2.5-2.0625 2.5-5 4-6.21052632-.21052632-6.21052632-.21052632-9-3l-1 59h-15c-.38927774-33.77500547-.68940975-67.54937915-.8681106-101.32613615-.02125759-4.00335218-.0432615-8.00669992-.06572729-12.01004549l-.01351296-2.41475264c-.07362415-12.83979439-.20746106-25.67827178-.36424668-38.51728939-.15996196-13.21103262-.25360622-26.42138401-.28790688-39.63334504-.0210716-7.40609775-.07143597-14.80944479-.19790655-22.2145564-.96897496-58.41111818-.96897496-58.41111818 16.81781387-79.49876785C341.7308407 112.11945046 343.84082464 108.64710929 346 105Z"/>
  <path fill="#D78954" d="M476 332h21v31h-21v-31Z"/>
  <path fill="#D68854" d="M476 192h21v31h-21v-31Z"/>
  <path fill="#B87240" d="M15 332h19v31H15v-31Z"/>
  <path fill="#BA7341" d="M15 192h19v31H15v-31Z"/>
  <path fill="#D78954" d="M293 332h16v31h-16v-31Z"/>
  <path fill="#D88A55" d="M201 332h16v31h-16v-31Z"/>
  <path fill="#D78954" d="M109 332h16v31h-16v-31Zm184-140h16v31h-16v-31Zm-92 0h16v31h-16v-31Z"/>
  <path fill="#D68854" d="M385 192h15v31h-15v-31Zm-275 0h15v31h-15v-31Z"/>
  <path fill="#D78954" d="M385 332h15v30h-15v-30Zm-363 0h11v24c-7 0-7 0-9.421875-1.359375-2.47747839-4.14548365-2.0002244-8.16451084-1.828125-12.890625l.0546875-2.8359375C21.85173091 336.60893562 21.92347222 334.30433646 22 332Zm0-139h11v23c-8 0-8 0-9.98168945-1.20825195-1.3079413-2.30136208-1.36177027-3.81735609-1.3112793-6.4597168l.02929687-2.70507813L21.8125 202.8125l.04101562-2.84960938C21.88886397 197.64168265 21.94267085 195.32076912 22 193Z"/>
  <path fill="#0B0805" d="M258 200c2.9375 2.0625 2.9375 2.0625 5 5 .06584389 3.81894541-.14427971 5.97971812-2.625 8.9375-3.38668643 1.51509656-5.70917263 1.58618962-9.375 1.0625-2.5-2.0625-2.5-2.0625-4-5 0-3.8137751.15014929-6.02424548 2.6875-8.9375 3.0989448-1.4238395 4.93432812-1.61403827 8.3125-1.0625Z"/>
  <path fill="#0A0704" d="M259 340c2.5625 2.125 2.5625 2.125 4 5 0 3.63075827-.58823873 5.42048414-2.6875 8.375C258 355 258 355 255.0625 355.5625c-4.18428713-.76854253-5.63177503-2.10055838-8.0625-5.5625 0-3.51955419.36891645-5.84920059 2.0625-8.9375 3.2139875-1.76250928 6.43406662-1.80821072 9.9375-1.0625Z"/>
  <path fill="#060403" d="M75 340c2.4375 1.625 2.4375 1.625 4 4 .5625 2.9375.5625 2.9375 0 6-2.48122379 3.35694984-3.94365169 4.78441871-8.0625 5.625C68 355 68 355 65.625 352.875c-1.90571139-3.37164323-2.27350195-5.06505105-1.625-8.875 2.94100222-4.47032338 5.86894599-4.73300772 11-4Z"/>
  <path fill="#060402" d="M442 340c2.4375 1.625 2.4375 1.625 4 4 .5625 2.9375.5625 2.9375 0 6-2.48602449 3.36344489-3.91425523 4.80057749-8.0625 5.5625C435 355 435 355 432.625 353.4375c-2.24840519-3.37260779-2.19283945-5.46262383-1.625-9.4375 2.88811487-4.5054592 5.88178937-4.73117295 11-4Zm-275 0c2.4375 1.625 2.4375 1.625 4 4 .5625 2.9375.5625 2.9375 0 6-2.48602449 3.36344489-3.91425523 4.80057749-8.0625 5.5625C160 355 160 355 157.625 353.4375c-2.24840519-3.37260779-2.19283945-5.46262383-1.625-9.4375 2.88811487-4.5054592 5.88178937-4.73117295 11-4Z"/>
  <path fill="#050402" d="M350 200c2.4375 1.5625 2.4375 1.5625 4 4 .56288002 3.94016013.60396028 6.05782196-1.5625 9.4375-3.40469488 2.18249672-5.47180012 2.19984462-9.4375 1.5625-2.5-2.0625-2.5-2.0625-4-5 .06022514-3.49305789.36341832-5.90366489 2.125-8.9375 3.05952459-1.7337306 5.44317525-1.48395216 8.875-1.0625Z"/>
  <path fill="#060402" d="M166 200c2.9375 2.0625 2.9375 2.0625 5 5 0 3.54361243-.34149956 5.86591591-2.125 8.9375-3.05952459 1.7337306-5.44317525 1.48395216-8.875 1.0625-2.4375-1.5625-2.4375-1.5625-4-4-.56783945-3.97487617-.62340519-6.06489221 1.625-9.4375 3.13183492-2.06041771 4.69044773-2.2392545 8.375-1.5625Z"/>
  <path fill="#050302" d="M350 340c2.4375 1.5625 2.4375 1.5625 4 4 .5625 3.5.5625 3.5 0 7-2.0625 2.5-2.0625 2.5-5 4-3.8137751 0-6.02424548-.15014929-8.9375-2.6875-1.40067538-3.04852877-1.5467732-4.99176952-1.0625-8.3125 2.94100222-4.47032338 5.86894599-4.73300772 11-4ZM74 200c2.875 1.5625 2.875 1.5625 5 4 .63734462 3.96569988.61999672 6.03280512-1.5625 9.4375C74.05782196 215.60396028 71.94016013 215.56288002 68 215c-2.4375-1.5625-2.4375-1.5625-4-4-.56783945-3.97487617-.62340519-6.06489221 1.625-9.4375 3.11043691-2.04634007 4.71177666-2.16057728 8.375-1.5625Z"/>
  <path fill="#040301" d="M441 200c2.875 1.625 2.875 1.625 5 4 .72567326 3.78962702.27777899 5.48888666-1.5625 8.875C442 215 442 215 438.5 215.5625c-3.5-.5625-3.5-.5625-5.9375-2.125-2.16646028-3.37967804-2.12538002-5.49733987-1.5625-9.4375 2.74342653-4.1151398 5.18629428-4.78591114 10-4Z"/>
  <path fill="#B67141" d="M201 332h1v23h14v-23h1v31h-16v-31Z"/>
  <path fill="#B97342" d="M293 192h16v31h-16v-31Zm1 1v23h14v-23h-14Zm-93-1h16v31h-16v-31Zm1 1v23h14v-23h-14Z"/>
  <path fill="#AD6B3C" d="M476 332h1v24h20v7h-21v-31Z"/>
  <path fill="#B5703F" d="M476 192h1v24h20v7h-21v-31Z"/>
  <path fill="#AE6C3D" d="M308 332h1v31h-16v-7h15v-24Z"/>
  <path fill="#A46639" d="M109 332h1v24h15v7h-16v-31Z"/>
  <path fill="#C57A44" d="M385 216h15v7h-15v-7Zm-275 0h15v7h-15v-7Zm275 140h15v6h-15v-6Z"/>
  <path d="M278.81268 238.71756h14.656628v76.65242H278.81268zm182.87775-.85071h15.491025v67.755135H461.69043zm-366.036599 2.00766h13.587956v64.441887H95.653831z"/>
</svg>
