<?xml version="1.0" encoding="UTF-8" standalone="no"?>
<svg xmlns="http://www.w3.org/2000/svg" version="1.1" viewBox="0 0 300 200">
    <defs>
        <g id="a" fill="#fff" stroke-width="0">
            <rect width="28" height="162" x="-14" y="30"/>
            <polygon points="0, 3 14, 30.1 -14, 30.1"/>
        </g>
    </defs>
    <rect width="100%" height="100%" fill="#d0c89a"/>
    <rect width="100%" height="120" y="50" fill="#fff"/>
    <use transform="translate(30)" href="#a"/>
    <use transform="translate(70)" href="#a"/>
    <use transform="translate(110)" href="#a"/>
    <use transform="translate(150)" href="#a"/>
    <use transform="translate(190)" href="#a"/>
    <use transform="translate(230)" href="#a"/>
    <use transform="translate(270)" href="#a"/>
    <path
            style="fill:#a73950"
            d="m 106.24625,75.289998 q 1.66948,0 2.21207,0.125211 0.58431,0.125212 1.25211,0.542583 l 0.0417,0.04174 q -0.0417,-0.125212 -0.0417,-0.208686 -0.0835,-0.667793 -0.12521,-1.043427 -0.0417,-0.417371 -0.0417,-1.001691 0,-0.876479 0.0417,-1.419061 0.0835,-0.584319 0.16695,-1.252113 -0.45911,0.459108 -1.12691,0.626057 -0.66779,0.166948 -2.12859,0.166948 -0.20868,0 -0.66779,0 -0.58432,0.04174 -0.91822,0.04174 -0.41737,0 -0.91821,-0.04174 -1.16864,0 -1.62775,0 h -1.29385 q 0,-3.17202 0.0417,-4.507607 0,-0.918216 0.0417,-2.253803 0.0417,-1.377324 0.0835,-2.5877 2.75465,-0.166949 5.67624,-0.166949 1.83643,0 2.37902,0.166949 0.58432,0.166948 1.21037,0.793005 l -0.0417,-1.669484 q 0,-1.085165 0.0417,-1.669484 0.0835,-0.626057 0.16695,-1.168639 -1.71122,0.208686 -3.58939,0.333897 -1.83643,0.08347 -5.46756,0.08347 -2.170328,0 -4.090235,-0.08347 -1.377324,-0.08347 -2.253803,-0.166949 0.500845,0.626057 0.709531,1.293851 0.250422,0.667793 0.333896,2.086854 0.08347,1.377325 0.125212,3.297231 0.04174,1.87817 0.04174,4.674555 v 7.429204 0.459108 q -0.04174,4.924978 -0.08347,6.260565 0,0.834742 -0.04174,1.377324 -0.04174,0.500845 -0.125211,0.959953 -0.08347,0.667794 -0.208685,1.043428 -0.125212,0.333897 -0.375634,0.751268 0.876479,-0.125212 1.58601,-0.166949 0.751267,-0.04174 1.878169,-0.04174 0.834742,0 1.377325,0.04174 0.58432,0.04174 1.37732,0.166949 0.0417,0 0.16695,0 v -0.04174 q -0.37563,-0.626056 -0.58432,-1.29385 -0.20868,-0.667793 -0.29216,-2.128592 -0.0417,-1.377324 -0.0835,-3.088545 0,-1.752958 0,-6.76141 z m 13.10544,-12.855026 1.00169,-0.04174 q 1.25211,-0.08347 1.83643,-0.08347 0.58432,-0.04174 1.41906,-0.04174 1.58601,0 2.37902,0.08347 0.83474,0.04174 1.25211,0.125212 0.75127,0.125211 1.08516,0.333897 0.3339,0.166948 0.75127,0.667793 -0.12521,-1.085164 -0.12521,-2.003381 0,-0.959953 0.0417,-1.460798 0.0835,-0.542582 0.20868,-1.168639 -1.04343,0.125211 -1.50253,0.166949 -0.45911,0.04174 -1.4608,0.08347 -1.00169,0.04174 -2.54597,0.08347 -1.54427,0 -3.7146,0 -2.75465,0 -3.7146,-0.04174 -0.41737,0 -1.1269,-0.04174 -1.00169,-0.04174 -1.62775,-0.08347 0.58432,0.70953 0.83474,1.502535 0.25043,0.751268 0.29216,2.87986 l 0.12522,7.637889 -0.0835,12.646341 q -0.0417,2.337277 -0.29216,3.255494 -0.20868,0.876479 -0.87648,1.669484 1.7947,-0.08348 4.3824,-0.125212 2.62944,-0.04174 4.92498,-0.04174 2.75464,0 4.09023,0.04174 1.33559,0.04174 2.62944,0.125212 h 0.25042 q 0,-1.58601 0.12521,-2.587701 0.12521,-1.043427 0.41737,-2.29554 -1.00169,0.793005 -1.87817,1.043427 -0.75126,0.250423 -1.79469,0.375634 -1.04343,0.08347 -2.5877,0.08347 -1.29385,0 -2.46249,-0.04174 -1.16864,-0.08347 -1.54427,-0.250422 -0.50085,-0.166949 -0.62606,-0.793005 -0.0835,-0.667794 -0.0835,-2.5877 V 74.53873 h 2.21206 q 2.04512,0 3.17202,0.04174 1.16864,0 1.83643,0.08348 0.50085,0.04174 0.75127,0.166948 0.29216,0.125211 0.70953,0.375634 0.0835,0.04174 0.16695,0.08347 -0.12521,-0.626056 -0.16695,-1.085164 -0.0417,-0.500846 -0.0417,-1.210376 0,-0.834742 0.16694,-2.003381 0.0417,-0.375634 0.0417,-0.500845 -0.50084,0.417371 -1.04343,0.626056 -0.54258,0.166949 -2.04511,0.208686 h -5.75972 z m 36.68691,8.973476 q 0.0835,-4.424133 0.16694,-6.803147 0.12522,-2.379015 0.3339,-3.798076 0.12521,-0.667794 0.20869,-1.043428 0.12521,-0.375634 0.29216,-0.793005 -0.6678,0.08347 -1.25212,0.166949 -0.58432,0.04174 -1.33558,0.04174 -0.0835,0 -0.62606,-0.04174 -0.37563,0 -0.75127,0 -0.0835,0 -0.62605,-0.08347 -0.50085,-0.04174 -1.00169,-0.08347 0.37563,0.959954 0.50084,1.961644 0.12521,1.001691 0.20869,2.545963 v 0.04174 q 0.0417,1.126902 0.0417,2.420752 0.0417,1.29385 0.0835,3.756339 0.0417,3.714602 0.0417,3.839813 v 7.470941 l -3.67286,-7.34573 q -4.29892,-8.472631 -7.13704,-14.649721 -0.16695,0 -0.58432,0.04174 -0.6678,0.08347 -1.25212,0.125211 -0.54258,0.04174 -1.46079,0.04174 -0.50085,0 -1.08517,-0.04174 -0.793,0 -0.91822,0 -0.0835,0 -0.75126,-0.08347 -0.79301,-0.08347 -1.1269,-0.08347 l 0.0417,0.04174 q 0.58432,0.834742 0.83474,1.794695 0.29216,0.918216 0.29216,3.255494 0,1.544272 0.0835,4.549343 0.0417,3.005072 0.0417,4.549344 v 2.838123 l -0.16695,7.345729 q -0.0835,2.045118 -0.25043,3.088546 -0.12521,1.00169 -0.4591,2.170329 1.54427,-0.208686 2.92159,-0.208686 0.87648,0 1.41906,0.04174 0.54259,0.04174 1.16864,0.166949 -0.33389,-0.667794 -0.50084,-1.502536 -0.12521,-0.834742 -0.20869,-3.088545 l -0.16695,-10.100378 v -9.05695 l 7.7631,15.234041 q 0.87648,1.669483 1.4608,2.838122 0.62606,1.126902 1.04343,2.003381 0.41737,0.876479 0.70953,1.58601 0.29216,0.667793 0.87648,2.045118 0.54258,-0.125212 0.95995,-0.166949 0.45911,-0.04174 1.25212,-0.04174 0.91821,0 1.46079,0.04174 0.58432,0.04174 1.25212,0.125211 0.12521,0.04174 0.16695,0.04174 -0.20869,-1.001691 -0.29216,-1.794696 -0.0417,-0.834742 -0.0835,-3.130282 0,-0.667794 0,-2.253803 -0.0417,-0.709531 -0.0417,-1.377325 0,-0.626056 0.0417,-1.377324 0,-1.544273 0,-2.212066 z m 5.13366,1.961644 q 0,4.340658 1.00169,7.345729 1.00169,3.005071 2.75464,4.799766 1.75296,1.794696 4.0485,2.5877 2.29554,0.793005 5.00846,0.793005 1.29385,0 2.2538,-0.125211 0.95995,-0.125211 2.29554,-0.417371 0.16695,-0.04174 0.25042,-0.04174 0,-2.045118 0.50085,-4.048499 l -0.12521,0.04174 q -1.04343,0.626057 -1.83644,0.918217 -0.793,0.250422 -2.21206,0.250422 -3.04681,0 -4.96672,-1.377324 -1.87817,-1.419061 -2.79638,-3.464179 -0.87648,-2.086855 -1.12691,-4.006762 -0.25042,-1.919906 -0.25042,-3.631127 0,-2.212067 0.37564,-4.090236 0.41737,-1.919907 1.29385,-3.464179 0.91821,-1.544273 2.50422,-2.462489 1.62775,-0.918216 3.92329,-0.918216 1.91991,0 2.75465,0.459108 0.87648,0.459108 1.37732,1.126902 0.0417,0.04174 0.0417,0.04174 0.16695,-1.794696 0.41737,-2.671175 0.29216,-0.918216 0.75127,-1.752958 -1.4608,-0.333897 -2.5877,-0.459108 -1.08517,-0.166948 -2.5877,-0.166948 -3.67287,0 -6.21883,1.126901 -2.54596,1.126902 -4.0485,3.17202 -1.50253,2.003381 -2.17033,4.632818 -0.62605,2.629437 -0.62605,5.801457 z m 26.87869,-10.93512 1.00169,-0.04174 q 1.25211,-0.08347 1.83643,-0.08347 0.58432,-0.04174 1.41907,-0.04174 1.586,0 2.37901,0.08347 0.83474,0.04174 1.25211,0.125212 0.75127,0.125211 1.08517,0.333897 0.33389,0.166948 0.75127,0.667793 -0.12522,-1.085164 -0.12522,-2.003381 0,-0.959953 0.0417,-1.460798 0.0835,-0.542582 0.20869,-1.168639 -1.04343,0.125211 -1.50254,0.166949 -0.45911,0.04174 -1.4608,0.08347 -1.00169,0.04174 -2.54596,0.08347 -1.54427,0 -3.7146,0 -2.75465,0 -3.7146,-0.04174 -0.41738,0 -1.12691,-0.04174 -1.00169,-0.04174 -1.62774,-0.08347 0.58432,0.70953 0.83474,1.502535 0.25042,0.751268 0.29216,2.87986 l 0.12521,7.637889 -0.0835,12.646341 q -0.0417,2.337277 -0.29216,3.255494 -0.20869,0.876479 -0.87648,1.669484 1.79469,-0.08348 4.38239,-0.125212 2.62944,-0.04174 4.92498,-0.04174 2.75465,0 4.09024,0.04174 1.33558,0.04174 2.62943,0.125212 h 0.25043 q 0,-1.58601 0.12521,-2.587701 0.12521,-1.043427 0.41737,-2.29554 -1.00169,0.793005 -1.87817,1.043427 -0.75127,0.250423 -1.7947,0.375634 -1.04342,0.08347 -2.5877,0.08347 -1.29385,0 -2.46249,-0.04174 -1.16863,-0.08347 -1.54427,-0.250422 -0.50084,-0.166949 -0.62605,-0.793005 -0.0835,-0.667794 -0.0835,-2.5877 V 74.53873 h 2.21207 q 2.04512,0 3.17202,0.04174 1.16864,0 1.83643,0.08348 0.50084,0.04174 0.75127,0.166948 0.29216,0.125211 0.70953,0.375634 0.0835,0.04174 0.16695,0.08347 -0.12522,-0.626056 -0.16695,-1.085164 -0.0417,-0.500846 -0.0417,-1.210376 0,-0.834742 0.16695,-2.003381 0.0417,-0.375634 0.0417,-0.500845 -0.50085,0.417371 -1.04343,0.626056 -0.54258,0.166949 -2.04512,0.208686 h -5.75972 z m 24.291,-3.839813 q -0.91822,0 -1.96165,0.125211 -1.00169,0.08347 -2.37901,0.542582 -1.33559,0.459108 -2.5877,1.502536 -1.21038,1.043427 -1.96165,2.754648 -0.41737,0.918216 -0.58432,1.87817 -0.16694,0.918216 -0.16694,1.794695 0,1.58601 0.4591,2.754648 0.45911,1.168639 1.29385,2.086855 0.83475,0.918217 1.91991,1.669484 1.08516,0.751268 3.04681,1.919907 2.75465,1.669484 3.79807,2.712911 1.04343,1.043428 1.04343,2.838123 0,0.793005 -0.33389,1.58601 -0.29216,0.793005 -0.95996,1.460798 -0.62605,0.667794 -1.71122,1.085165 -1.04343,0.417371 -2.50423,0.417371 -1.75295,0 -3.17201,-0.500845 -1.41907,-0.542583 -2.21207,-1.752959 -0.25042,1.58601 -0.58432,2.545963 -0.29216,0.918217 -0.75127,1.836433 1.1269,0.459108 2.67118,0.834742 1.58601,0.375634 4.00676,0.375634 2.17033,0 4.0485,-0.500846 1.9199,-0.500845 3.3807,-1.711221 1.41906,-1.126901 2.17033,-2.838122 0.75127,-1.711221 0.75127,-3.631128 0,-1.669484 -0.50085,-2.963334 -0.50084,-1.29385 -1.33558,-2.170329 -0.83475,-0.918216 -1.7947,-1.544273 -0.95995,-0.667793 -2.50423,-1.544272 -3.13028,-1.794696 -4.34065,-2.921597 -1.16864,-1.126902 -1.16864,-3.005071 0,-0.751268 0.25042,-1.502536 0.29216,-0.751268 0.87648,-1.377324 0.62606,-0.667794 1.58601,-1.043428 1.00169,-0.417371 2.33728,-0.417371 2.12859,0 3.17202,0.667794 1.08516,0.626056 1.62774,1.544273 0.37564,-1.836433 0.58432,-2.5877 0.20869,-0.793005 0.75127,-1.961644 l -0.0835,-0.04174 q -1.37733,-0.375634 -2.79639,-0.626057 -1.41906,-0.292159 -3.3807,-0.292159 z"
            transform="matrix(2.3640017,0,0,2.3640017,-222.07649,-79.826719)"
            aria-label="Fences"/>
    <path
            d="m 3.3418029,142.42016 v 9.62133 c 0.029333,4.19466 0.058667,4.54666 0.2053331,5.74932 0.2346663,1.99467 1.4959982,3.46133 3.3146628,3.84266 1.3493318,0.264 3.9893292,0.41067 8.0373242,0.41067 3.19733,0 6.511992,-0.176 7.831991,-0.41067 2.141331,-0.41066 3.343996,-1.81866 3.549329,-4.19466 0.117333,-1.20266 0.117333,-1.34933 0.146667,-5.39732 v -9.62133 h -2.610664 v 9.62133 c -0.02933,5.63199 -0.05867,5.95465 -0.615999,6.59999 -0.703999,0.82133 -2.610664,1.056 -8.88799,1.056 -3.314663,0 -5.4853271,-0.11734 -6.4826593,-0.352 -1.6426648,-0.41067 -1.8773312,-0.99734 -1.8773312,-4.72266 v -2.58133 -9.62133 z m 27.3426531,0 v 19.56531 h 2.610663 v -17.13064 h 0.586666 l 17.042647,17.13064 h 4.429329 v -19.56531 h -2.610664 v 17.15998 H 52.127098 L 35.025784,142.42016 Z m 29.102632,0 v 19.56531 h 18.039979 v -2.28799 H 62.397752 v -17.27732 z m 21.006676,0 v 19.56531 h 2.610663 v -19.56531 z m 7.043968,0 v 19.56531 h 2.610664 v -17.13064 h 1.143998 l 11.029316,17.13064 h 2.112 l 10.91199,-17.13064 h 1.08533 v 17.13064 h 2.61067 v -19.56531 h -5.25066 l -10.41333,16.60265 -10.618651,-16.60265 z m 35.937288,0 v 19.56531 h 2.61066 v -19.56531 z m 5.5773,0 v 2.288 h 9.82666 v 17.27731 h 2.61066 v -17.27731 h 9.76799 v -2.288 z m 25.17197,19.56531 h 19.18398 v -2.28799 h -16.57331 v -6.71733 h 15.83998 v -2.288 h -15.83998 v -5.98399 h 16.54398 v -2.288 h -19.15465 z m 22.532,0 h 13.69865 c 5.51466,0 7.01066,-0.29333 8.41866,-1.61333 1.46666,-1.37866 2.08266,-3.84266 2.08266,-8.18399 0,-4.60533 -0.41066,-6.51199 -1.70133,-7.89066 -1.46666,-1.55466 -2.96266,-1.87733 -9.00532,-1.87733 h -13.49332 z m 2.61066,-2.28799 v -14.98932 h 10.82399 c 2.2,0 3.05067,0 3.57867,0.0587 1.78933,0.11733 2.69866,0.46933 3.34399,1.232 0.76267,0.96799 1.17333,3.05066 1.17333,6.07199 0,4.75199 -0.85066,6.86399 -2.96266,7.36266 -1.08533,0.264 -1.20267,0.264 -4.98666,0.264 z m 26.3453,-0.99734 v 3.28533 h 1.20266 v 0.32267 c 0,1.11467 -0.29333,1.61333 -0.93866,1.61333 h -0.616 v 1.70133 h 0.528 c 1.02666,0 1.99466,-0.32266 2.43466,-0.82133 0.44,-0.49867 0.58667,-1.20266 0.58667,-2.816 v -3.28533 z m 18.93331,-16.27998 v 19.56531 h 2.61066 v -19.56531 z m 7.04397,0 v 19.56531 h 2.61067 v -17.13064 h 0.58666 l 17.04265,17.13064 h 4.42933 v -19.56531 h -2.61066 v 17.15998 h -0.616 l -17.10132,-17.15998 z m 49.04926,12.87732 -0.0293,0.88 c 0,2.43466 -0.41066,2.96266 -2.37599,3.256 -0.76267,0.11733 -4.16533,0.264 -6.10133,0.264 -2.376,0 -5.04533,-0.088 -6.33599,-0.23467 -1.64267,-0.14667 -2.288,-0.76267 -2.52267,-2.25866 -0.11733,-0.968 -0.29333,-4.10667 -0.29333,-5.72 0,-3.40266 0.352,-5.27999 1.08533,-5.89599 0.792,-0.616 3.168,-0.88 8.33066,-0.88 3.40266,0 5.69066,0.20533 6.65866,0.55733 1.11466,0.44 1.408,1.02667 1.43733,2.96267 v 0.67466 h 2.43466 c -0.0587,-3.37333 -0.176,-3.98933 -1.05599,-4.86933 -1.26134,-1.29066 -3.344,-1.67199 -9.35733,-1.67199 -1.55466,0 -4.13599,0.0587 -5.36799,0.14666 -2.93333,0.176 -4.048,0.44 -4.98666,1.17333 -1.34933,1.08534 -1.81867,3.40267 -1.81867,8.82933 0,4.72266 0.41067,6.89332 1.52534,7.97866 1.29066,1.26133 3.34399,1.55466 11.05865,1.55466 6.04266,0 7.89066,-0.29333 9.03466,-1.37866 0.90933,-0.88 1.05599,-1.61334 1.20266,-5.368 z m 6.66265,3.37333 v 3.31466 h 3.19733 v -3.31466 z"
            aria-label="Unlimited, Inc."/>
</svg>
